<?xml version="1.0" encoding="UTF-8" standalone="no"?>
<!DOCTYPE svg PUBLIC "-//W3C//DTD SVG 1.1//EN" "http://www.w3.org/Graphics/SVG/1.1/DTD/svg11.dtd">
<svg width="100%" height="100%" viewBox="0 0 512 512" version="1.1" xmlns="http://www.w3.org/2000/svg" xmlns:xlink="http://www.w3.org/1999/xlink" xml:space="preserve" xmlns:serif="http://www.serif.com/" style="fill-rule:evenodd;clip-rule:evenodd;stroke-linejoin:round;stroke-miterlimit:2;">
    <path d="M75,512L242,512L242,330L182,330L182,270L242,270L242,195C242,153.645 275.645,120 317,120L392,120L392,180L332,180C315.457,180 302,193.457 302,210L302,270L389.293,270L379.293,330L302,330L302,512L437,512C478.355,512 512,478.355 512,437L512,75C512,33.645 478.355,0 437,0L75,0C33.645,0 0,33.645 0,75L0,437C0,478.355 33.645,512 75,512ZM30,75C30,50.188 50.188,30 75,30L437,30C461.813,30 482,50.188 482,75L482,437C482,461.813 461.813,482 437,482L332,482L332,360L404.707,360L424.707,240L332,240L332,210L422,210L422,90L317,90C259.102,90 212,137.102 212,195L212,240L152,240L152,360L212,360L212,482L75,482C50.188,482 30,461.813 30,437L30,75Z" style="fill:rgb(238,197,203);fill-rule:nonzero;"/>
</svg>
