<?xml version="1.0" encoding="UTF-8" standalone="no"?>
<!DOCTYPE svg PUBLIC "-//W3C//DTD SVG 1.1//EN" "http://www.w3.org/Graphics/SVG/1.1/DTD/svg11.dtd">
<svg width="100%" height="100%" viewBox="0 0 513 512" version="1.1" xmlns="http://www.w3.org/2000/svg" xmlns:xlink="http://www.w3.org/1999/xlink" xml:space="preserve" xmlns:serif="http://www.serif.com/" style="fill-rule:evenodd;clip-rule:evenodd;stroke-linejoin:round;stroke-miterlimit:2;">
    <g transform="matrix(1,0,0,1,0,47)">
        <path d="M512,55.965C479.793,57.449 480.496,57.328 476.855,57.633L495.93,3.16C495.93,3.16 436.391,25.063 421.297,28.98C381.656,-6.648 322.734,-8.223 280.609,17.668C246.113,38.875 227.598,75.293 233.773,117.859C166.637,108.543 110.07,76.719 65.41,23.07L51.285,6.105L40.73,25.488C27.391,49.98 22.961,77.984 28.254,104.34C30.426,115.152 34.117,125.465 39.23,135.121L27.113,130.426L25.676,150.672C24.219,171.238 31.066,195.246 43.996,214.887C47.637,220.418 52.324,226.492 58.266,232.484L52.004,231.523L59.645,254.723C69.687,285.203 90.547,308.785 117.617,321.895C90.582,333.367 68.742,340.688 32.844,352.496L0,363.293L30.336,379.879C41.902,386.203 82.773,407.324 123.156,413.66C212.922,427.738 313.988,416.273 382.027,354.996C439.336,303.383 458.141,229.965 454.234,153.563C453.645,141.996 456.813,130.957 463.156,122.484C475.863,105.52 511.922,56.078 512,55.965ZM439.168,104.516C428.633,118.582 423.355,136.547 424.301,155.094C428.242,232.16 407.273,291.926 361.973,332.723C309.055,380.383 223.699,399.09 127.801,384.047C110.434,381.324 92.484,375.227 77.629,369.137C107.727,358.781 130.969,349.551 168.504,331.785L220.902,306.984L163.051,303.281C135.34,301.508 112.266,288.078 98.082,266.273C105.613,265.836 112.875,264.617 120.105,262.602L175.281,247.234L119.645,233.609C92.609,226.988 77.199,210.813 69.031,198.406C63.668,190.254 60.164,181.902 58.062,174.203C63.641,175.699 70.145,176.766 80.633,177.805L132.129,182.898L91.328,151.07C61.93,128.141 50.148,93.691 58.785,60.574C150.535,155.738 258.262,148.586 269.105,151.102C266.719,127.918 266.656,127.863 266.031,125.656C252.145,76.566 282.578,51.641 296.305,43.203C324.977,25.582 370.488,22.926 402.012,51.957C408.82,58.223 418.027,60.688 426.645,58.547C434.379,56.625 440.727,54.59 446.941,52.375L434.004,89.32L450.52,89.332C447.402,93.512 443.664,98.516 439.168,104.516Z" style="fill:rgb(238,197,203);fill-rule:nonzero;"/>
    </g>
</svg>
